<?xml version="1.0" encoding="UTF-8"?>
<svg width="195px" height="251px" viewBox="0 0 195 251" version="1.1" xmlns="http://www.w3.org/2000/svg" xmlns:xlink="http://www.w3.org/1999/xlink">
    <title>Group</title>
    <g id="Page-1" stroke="none" stroke-width="1" fill="none" fill-rule="evenodd">
        <g id="Group" transform="translate(0.871159, 0.951744)">
            <g id="Group-2" transform="translate(-0.000000, 0.000000)">
                <g id="Group-3" transform="translate(96.669787, 85.448683)">
                    <polygon id="Path" fill="#FFD58F" points="5.45905449 58.1142844 5.45905449 127.138361 66.4109598 92.0995728 66.4109598 22.9722243"></polygon>
                    <polygon id="Path-2" fill="#FADAA4" points="74.8878562 12.1686552 95.564342 -1.40895605e-14 96.9846433 109.599573 0 164.184559 0 139.511425 75.3340082 97.0995728"></polygon>
                </g>
                <g id="Group-3" transform="translate(48.399314, 166.841028) scale(-1, 1) translate(-48.399314, -166.841028) translate(0.128841, 84.048813)">
                    <polygon id="Path" fill="#FADAA4" points="5.01535667 59.5141542 5.01535667 128.538231 65.967262 93.4994427 65.967262 24.3720941"></polygon>
                    <polygon id="Path-2" fill="#FFBD52" points="73.555835 13.5685251 96.5409455 0 96.5409455 110.999443 0 165.584429 0 140.911294 74.8903104 98.4994427"></polygon>
                </g>
                <g id="Group-3" transform="translate(96.669787, 83.902985) scale(-1, 1) rotate(240.000000) translate(-96.669787, -83.902985) translate(48.015341, 0.368988)">
                    <polygon id="Path" fill="#FFBD52" points="5.78330322 58.0861629 5.78330322 127.110239 66.7352085 92.0714514 66.7352085 22.9441028"></polygon>
                    <polygon id="Path-2" fill="#FFD58F" points="74.2213955 11.8220343 95.098003 0 97.3088921 109.571451 0.257682065 167.067994 -0.000450092881 140.378042 75.658257 97.0714514"></polygon>
                </g>
            </g>
        </g>
    </g>
</svg>